<?xml version="1.0" standalone="no"?>
<!DOCTYPE svg PUBLIC "-//W3C//DTD SVG 20010904//EN"
 "http://www.w3.org/TR/2001/REC-SVG-20010904/DTD/svg10.dtd">
<svg version="1.0" xmlns="http://www.w3.org/2000/svg"
 width="441.000000pt" height="113.000000pt" viewBox="0 0 441.000000 113.000000"
 preserveAspectRatio="xMidYMid meet">

<g transform="translate(0.000000,113.000000) scale(0.100000,-0.100000)"
fill="#000000" stroke="none">
<path d="M300 1032 c0 -7 11 -34 24 -60 59 -117 114 -318 101 -369 -10 -40
-91 -119 -148 -144 -41 -19 -68 -23 -129 -22 -82 1 -92 -8 -31 -28 53 -17 130
-5 230 36 48 20 95 39 104 42 11 3 27 -21 62 -92 46 -94 117 -207 138 -220 21
-14 18 3 -11 56 -48 89 -90 232 -90 306 0 58 5 76 51 167 40 81 52 115 56 166
3 48 2 61 -6 50 -6 -8 -11 -24 -11 -35 0 -29 -42 -114 -74 -152 -18 -21 -37
-33 -52 -33 -21 0 -30 11 -60 78 -59 129 -97 202 -126 235 -15 18 -27 26 -28
19z"/>
<path d="M518 923 c-7 -10 -24 -18 -38 -18 -20 0 -26 -6 -28 -29 -4 -29 44
-156 58 -156 16 0 64 126 64 170 1 39 -2 45 -21 48 -12 2 -27 -5 -35 -15z"/>
<path d="M2403 843 c-19 -7 -16 -50 4 -57 24 -10 51 20 37 41 -12 19 -23 24
-41 16z"/>
<path d="M970 705 l0 -135 30 0 c30 0 30 1 30 55 l0 55 60 0 c57 0 60 1 60 25
0 22 -4 24 -57 27 -55 3 -58 4 -61 31 -3 27 -3 27 57 27 58 0 61 1 61 25 0 25
-1 25 -90 25 l-90 0 0 -135z"/>
<path d="M1800 796 l0 -44 -40 5 c-34 5 -43 2 -70 -25 -39 -40 -42 -101 -6
-137 21 -21 33 -24 95 -23 l71 0 0 134 0 134 -25 0 c-23 0 -25 -4 -25 -44z
m-2 -126 c4 -48 -15 -74 -46 -63 -24 9 -32 23 -32 59 0 37 17 56 50 52 22 -3
25 -8 28 -48z"/>
<path d="M1910 705 l0 -135 35 0 35 0 0 56 c0 52 1 55 23 52 15 -2 29 -18 47
-55 24 -50 27 -53 63 -53 l38 0 -34 65 c-33 62 -34 65 -16 81 27 24 24 70 -6
99 -22 22 -32 25 -105 25 l-80 0 0 -135z m135 55 c0 -21 -5 -26 -32 -28 -31
-3 -33 -1 -33 28 0 29 2 31 33 28 27 -2 32 -7 32 -28z"/>
<path d="M291 796 c-6 -7 -22 -11 -36 -8 -35 6 -33 -26 6 -94 35 -61 44 -70
53 -48 3 8 2 13 -3 10 -12 -8 -51 59 -51 86 0 21 0 21 15 2 14 -19 14 -18 15
4 0 12 5 22 10 22 6 0 11 -24 11 -52 l1 -53 9 50 c14 76 -1 116 -30 81z"/>
<path d="M1521 751 c-8 -5 -29 -7 -48 -4 l-33 6 0 -92 c0 -90 0 -91 25 -91 24
0 25 3 25 58 0 44 5 63 18 75 40 36 62 8 62 -77 0 -53 1 -56 25 -56 24 0 25 2
25 75 0 62 -4 79 -20 95 -21 21 -55 26 -79 11z"/>
<path d="M2198 748 c-20 -7 -28 -17 -28 -34 0 -24 1 -24 24 -8 28 17 67 16 74
-3 2 -7 -9 -17 -25 -23 -74 -27 -94 -51 -73 -89 9 -18 19 -20 98 -18 74 2 87
5 90 20 2 10 -3 17 -12 17 -13 0 -16 12 -16 59 0 51 -3 62 -22 75 -25 18 -69
19 -110 4z m72 -113 c0 -29 -25 -44 -43 -26 -9 10 -7 17 12 32 30 24 31 24 31
-6z"/>
<path d="M2512 744 c-14 -10 -22 -25 -22 -45 0 -25 7 -33 45 -51 25 -12 45
-25 45 -29 0 -13 -29 -18 -60 -9 -29 8 -31 7 -28 -13 3 -19 10 -22 52 -25 103
-7 120 80 23 117 -16 6 -27 17 -24 24 5 13 20 14 55 3 18 -6 22 -4 22 12 0 34
-68 44 -108 16z"/>
<path d="M2689 731 c-40 -40 -41 -101 -3 -136 43 -40 164 -31 164 11 0 12 -5
14 -17 9 -38 -17 -80 -17 -96 0 -29 28 -19 35 49 35 l67 0 -7 33 c-14 75 -102
102 -157 48z m95 -17 c25 -25 19 -34 -24 -34 -43 0 -55 20 -22 39 23 14 28 14
46 -5z"/>
<path d="M2965 734 c-24 -26 -25 -26 -25 -5 0 16 -6 21 -25 21 -25 0 -25 -1
-25 -90 0 -89 0 -90 25 -90 22 0 25 4 25 35 0 39 22 91 42 98 7 2 20 0 29 -4
13 -7 18 -3 24 18 4 17 2 29 -7 34 -22 14 -38 10 -63 -17z"/>
<path d="M3082 744 c-25 -17 -29 -56 -8 -77 8 -8 28 -20 45 -27 53 -21 29 -46
-29 -30 -29 8 -31 7 -28 -13 3 -19 10 -22 54 -25 110 -6 111 87 1 132 -24 10
15 25 40 15 32 -12 33 -12 33 10 0 33 -68 43 -108 15z"/>
<path d="M3394 750 c-56 -23 -73 -112 -29 -155 20 -21 34 -25 80 -25 49 0 55
2 55 21 0 18 -4 21 -29 16 -39 -8 -71 16 -71 53 0 37 36 64 74 54 22 -5 26 -3
26 14 0 31 -56 42 -106 22z"/>
<path d="M3600 753 c-63 -25 -83 -111 -35 -158 35 -36 112 -35 149 1 56 57 21
151 -59 159 -22 3 -47 2 -55 -2z m64 -39 c31 -30 14 -114 -22 -114 -28 0 -42
21 -42 61 0 35 20 69 40 69 5 0 16 -7 24 -16z"/>
<path d="M3871 751 c-7 -5 -31 -6 -52 -4 l-39 6 0 -92 0 -91 30 0 c29 0 29 0
32 66 3 74 21 99 56 78 13 -8 18 -27 20 -78 3 -66 3 -66 32 -66 29 0 29 0 32
66 3 74 21 99 56 78 13 -8 18 -27 20 -78 3 -63 4 -66 28 -66 25 0 25 0 22 82
-3 77 -5 83 -29 97 -28 15 -69 10 -91 -13 -12 -11 -18 -11 -37 5 -25 20 -57
24 -80 10z"/>
<path d="M1210 676 c0 -54 4 -79 16 -90 18 -19 75 -21 92 -4 9 9 12 9 12 0 0
-7 13 -12 30 -12 l30 0 0 90 0 90 -30 0 -30 0 0 -65 c0 -70 -16 -93 -52 -74
-14 8 -18 23 -18 74 0 63 -1 65 -25 65 -24 0 -25 -2 -25 -74z"/>
<path d="M2390 660 c0 -89 0 -90 25 -90 25 0 25 1 25 90 0 89 0 90 -25 90 -25
0 -25 -1 -25 -90z"/>
<path d="M772 631 c-14 -45 -15 -71 -3 -71 4 0 23 10 42 23 36 24 48 64 17 59
-11 -2 -18 3 -18 13 0 30 -27 14 -38 -24z m44 -7 c22 8 16 -11 -8 -28 -39 -28
-47 -19 -26 31 9 23 12 25 15 10 3 -11 11 -16 19 -13z"/>
<path d="M634 616 c-3 -9 3 -38 14 -64 l21 -47 25 55 c27 59 22 85 -13 63 -13
-8 -21 -9 -29 -1 -8 8 -13 7 -18 -6z m42 -23 c3 10 10 17 14 17 5 0 3 -13 -3
-30 -13 -35 -22 -38 -37 -11 -15 30 -12 49 5 27 13 -17 15 -17 21 -3z"/>
<path d="M3237 616 c-11 -28 4 -47 32 -44 20 2 26 8 26 28 0 20 -6 26 -26 28
-17 2 -29 -3 -32 -12z"/>
</g>
</svg>
